HIERARCHY
ROOT joint_Root
{
	OFFSET 0.0 0.0 0.0
	CHANNELS 6 Xposition Yposition Zposition Zrotation Xrotation Yrotation 
	JOINT Hips
	{
		OFFSET 4.5925 91.4895 -427.239
		CHANNELS 6 Xposition Yposition Zposition Zrotation Xrotation Yrotation 
		JOINT Spine
		{
			OFFSET 15.7357 0.0 0.0
			CHANNELS 6 Xposition Yposition Zposition Zrotation Xrotation Yrotation 
			JOINT Chest
			{
				OFFSET 8.98455 -0.406207 0.0
				CHANNELS 6 Xposition Yposition Zposition Zrotation Xrotation Yrotation 
				JOINT Neck
				{
					OFFSET 16.3773 0.0 0.0
					CHANNELS 6 Xposition Yposition Zposition Zrotation Xrotation Yrotation 
					JOINT Head
					{
						OFFSET 6.45672 0.0 0.0
						CHANNELS 6 Xposition Yposition Zposition Zrotation Xrotation Yrotation 
						End Site
						{
							OFFSET 0.0 0.0 0.0
						}
					}
				}
				JOINT Shoulder_L
				{
					OFFSET 12.9942 -0.242716 4.98039
					CHANNELS 6 Xposition Yposition Zposition Zrotation Xrotation Yrotation 
					JOINT UpperArm_L
					{
						OFFSET 5.34809 0.0 0.0
						CHANNELS 6 Xposition Yposition Zposition Zrotation Xrotation Yrotation 
						JOINT LowerArm_L
						{
							OFFSET 24.3286 1.87007e-05 0.0
							CHANNELS 6 Xposition Yposition Zposition Zrotation Xrotation Yrotation 
							JOINT Hand_L
							{
								OFFSET 22.2916 0.0 0.0
								CHANNELS 6 Xposition Yposition Zposition Zrotation Xrotation Yrotation 
								End Site
								{
									OFFSET 0.0 0.0 0.0
								}
							}
						}
					}
				}
				JOINT Shoulder_R
				{
					OFFSET 12.9945 -0.242716 -4.98039
					CHANNELS 6 Xposition Yposition Zposition Zrotation Xrotation Yrotation 
					JOINT UpperArm_R
					{
						OFFSET -5.34813 0.0 0.0
						CHANNELS 6 Xposition Yposition Zposition Zrotation Xrotation Yrotation 
						JOINT LowerArm_R
						{
							OFFSET -24.3289 0.000322201 0.0
							CHANNELS 6 Xposition Yposition Zposition Zrotation Xrotation Yrotation 
							JOINT Hand_R
							{
								OFFSET -22.2915 -0.000108084 0.0
								CHANNELS 6 Xposition Yposition Zposition Zrotation Xrotation Yrotation 
								End Site
								{
									OFFSET 0.0 0.0 0.0
								}
							}
						}
					}
				}
			}
		}
		JOINT UpperLeg_L
		{
			OFFSET -2.19248 -6.46944 0.0
			CHANNELS 6 Xposition Yposition Zposition Zrotation Xrotation Yrotation 
			JOINT LowerLeg_L
			{
				OFFSET 39.0811 0.0 -1.23785e-05
				CHANNELS 6 Xposition Yposition Zposition Zrotation Xrotation Yrotation 
				JOINT Foot_L
				{
					OFFSET 40.9854 0.0 -1.26872e-05
					CHANNELS 6 Xposition Yposition Zposition Zrotation Xrotation Yrotation 
					JOINT Toes_L
					{
						OFFSET 11.7543 0.0 0.0
						CHANNELS 6 Xposition Yposition Zposition Zrotation Xrotation Yrotation 
						End Site
						{
							OFFSET 0.0 0.0 0.0
						}
					}
				}
			}
		}
		JOINT UpperLeg_R
		{
			OFFSET -2.19251 6.46944 0.0
			CHANNELS 6 Xposition Yposition Zposition Zrotation Xrotation Yrotation 
			JOINT LowerLeg_R
			{
				OFFSET -39.0811 -0.00228153 -0.0401928
				CHANNELS 6 Xposition Yposition Zposition Zrotation Xrotation Yrotation 
				JOINT Foot_R
				{
					OFFSET -40.9854 0.0 0.0
					CHANNELS 6 Xposition Yposition Zposition Zrotation Xrotation Yrotation 
					JOINT Toes_R
					{
						OFFSET -11.7543 0.0 0.0
						CHANNELS 6 Xposition Yposition Zposition Zrotation Xrotation Yrotation 
						End Site
						{
							OFFSET 0.0 0.0 0.0
						}
					}
				}
			}
		}
	}
}
MOTION
Frames:	4
Frame Time:	0.0333333
0.000000 0.000000 0.000000 0.000000 0.000000 -0.000000 -1.151980 91.126800 -2.742510 88.316200 -4.003960 11.683200 15.735700 0.000005 -0.000001 87.000200 76.263700 -88.242700 8.984550 -0.406207 -0.000000 19.658100 -1.534820 -2.226210 16.377300 -0.000001 -0.000001 8.864730 -5.347080 0.032053 6.456720 -0.000001 -0.000000 -14.239500 -4.250040 -4.632910 12.994200 -0.242716 4.980390 -91.375600 7.774480 -79.934300 5.348090 -0.000007 -0.000001 -55.474600 32.322600 -27.130100 24.328600 0.000019 0.000005 10.712900 25.125600 -24.015600 22.291600 -0.000001 0.000005 10.784100 5.250090 1.430460 12.994500 -0.242716 -4.980390 89.116000 5.797900 -81.315300 -5.348130 -0.000001 -0.000004 -69.771900 -20.160000 -65.434200 -24.328900 0.000322 -0.000009 28.343500 -8.569090 -105.441000 -22.291500 -0.000108 -0.000004 38.716400 5.157040 3.774240 -2.192480 -6.469440 -0.000000 -172.515000 -15.482300 -0.347164 39.081100 -0.000007 -0.000012 -0.114263 0.191545 30.817700 40.985400 -0.000006 -0.000013 0.868724 7.339240 -68.222700 11.754300 -0.000000 0.000003 -0.000261 -0.002319 -16.664300 -2.192510 6.469440 -0.000001 174.207000 24.308900 -178.268000 -39.081100 -0.002282 -0.040193 -0.165696 0.308127 28.743900 -40.985400 0.000008 0.000006 5.407420 20.186700 -68.499700 -11.754300 -0.000006 -0.000006 -0.001156 -0.017605 -17.289000
0.000000 0.000000 0.000000 0.000000 0.000000 -0.000000 -1.134300 91.124900 -2.776880 88.306200 -4.219960 11.652900 15.735700 0.000005 -0.000001 87.020700 76.243100 -88.248000 8.984550 -0.406207 -0.000000 19.699900 -1.526110 -2.196980 16.377300 -0.000001 -0.000001 8.858680 -5.373760 0.121935 6.456720 -0.000001 -0.000000 -14.219200 -4.296210 -4.628960 12.994200 -0.242716 4.980390 -91.381200 7.797860 -79.923600 5.348090 -0.000007 -0.000001 -55.397500 32.400100 -27.409200 24.328600 0.000019 0.000005 10.722300 25.125100 -24.035100 22.291600 -0.000001 0.000005 10.737200 5.250490 1.419770 12.994500 -0.242716 -4.980390 89.115900 5.793150 -81.308000 -5.348130 -0.000001 -0.000004 -67.638500 -19.176300 -65.384000 -24.328900 0.000322 -0.000009 28.372400 -8.726250 -105.691000 -22.291500 -0.000108 -0.000004 38.445100 5.162550 3.641110 -2.192480 -6.469440 -0.000000 -172.490000 -15.602700 -0.376108 39.081100 -0.000007 -0.000012 -0.119902 0.200835 30.838200 40.985400 -0.000006 -0.000013 0.845790 7.233630 -68.222500 11.754300 -0.000000 0.000003 -0.000260 -0.002306 -16.663900 -2.192510 6.469440 -0.000001 174.273000 24.192200 -178.380000 -39.081100 -0.002282 -0.040193 -0.163960 0.304628 28.770400 -40.985400 0.000008 0.000006 5.430530 20.263100 -68.469500 -11.754300 -0.000006 -0.000006 -0.001222 -0.018514 -17.326000
0.000000 0.000000 0.000000 0.000000 0.000000 -0.000000 -1.127890 91.131600 -2.814910 88.304200 -4.334040 11.655200 15.735700 0.000005 -0.000001 87.034100 76.218600 -88.247800 8.984550 -0.406207 -0.000000 19.749300 -1.521240 -2.169780 16.377300 -0.000001 -0.000001 8.884080 -5.410910 0.181847 6.456720 -0.000001 -0.000000 -14.202100 -4.331810 -4.583940 12.994200 -0.242716 4.980390 -91.377100 7.805180 -79.961700 5.348090 -0.000007 -0.000001 -55.300700 32.514200 -27.668700 24.328600 0.000019 0.000005 10.689200 24.893400 -24.152800 22.291600 -0.000001 0.000005 10.703200 5.250220 1.426890 12.994500 -0.242716 -4.980390 89.114700 5.798610 -81.303700 -5.348130 -0.000001 -0.000004 -65.413200 -18.244700 -65.348700 -24.328900 0.000322 -0.000009 28.695700 -8.981420 -105.918000 -22.291500 -0.000108 -0.000004 38.076400 5.160700 3.685160 -2.192480 -6.469440 -0.000000 -172.477000 -15.692500 -0.368459 39.081100 -0.000007 -0.000012 -0.117571 0.197134 30.812100 40.985400 -0.000006 -0.000013 0.842325 7.204140 -68.189800 11.754300 -0.000000 0.000003 -0.000253 -0.002254 -16.662000 -2.192510 6.469440 -0.000001 174.298000 24.124600 -178.405000 -39.081100 -0.002282 -0.040193 -0.162880 0.303000 28.743400 -40.985400 0.000008 0.000006 5.435010 20.310100 -68.427300 -11.754300 -0.000006 -0.000006 -0.001171 -0.017811 -17.297400
0.000000 0.000000 0.000000 0.000000 0.000000 -0.000000 -1.124150 91.132900 -2.841460 88.315400 -4.391710 11.620600 15.735700 0.000005 -0.000001 87.040700 76.206400 -88.250400 8.984550 -0.406207 -0.000000 19.773900 -1.519130 -2.161790 16.377300 -0.000001 -0.000001 8.910090 -5.430600 0.200420 6.456720 -0.000001 -0.000000 -14.176900 -4.362260 -4.510830 12.994200 -0.242716 4.980390 -91.380000 7.818770 -79.958100 5.348090 -0.000007 -0.000001 -55.215600 32.598900 -27.935600 24.328600 0.000019 0.000005 10.707100 24.731500 -24.320400 22.291600 -0.000001 0.000005 10.706200 5.253140 1.349510 12.994500 -0.242716 -4.980390 89.116300 5.772450 -81.281300 -5.348130 -0.000001 -0.000004 -63.150200 -17.245500 -65.307900 -24.328900 0.000322 -0.000009 28.528000 -9.104450 -106.230000 -22.291500 -0.000108 -0.000004 37.848100 5.165450 3.570490 -2.192480 -6.469440 -0.000000 -172.493000 -15.754400 -0.407260 39.081100 -0.000007 -0.000012 -0.114910 0.192724 30.805500 40.985400 -0.000006 -0.000013 0.850489 7.214050 -68.175800 11.754300 -0.000000 0.000003 -0.000269 -0.002374 -16.666300 -2.192510 6.469440 -0.000001 174.327000 24.096400 -178.490000 -39.081100 -0.002282 -0.040193 -0.162447 0.302021 28.758500 -40.985400 0.000008 0.000006 5.444860 20.318600 -68.405200 -11.754300 -0.000006 -0.000006 -0.001139 -0.017363 -17.279200
